<svg width="216" height="35" viewBox="0 0 216 35" fill="none" xmlns="http://www.w3.org/2000/svg">
<path d="M14.52 12.08C13.8533 11.9733 12.8933 11.92 11.64 11.92C10.8133 11.92 10.2267 11.9733 9.88 12.08V6.28C11.7733 6.30667 13.7333 6.54667 15.76 7V12.2L14.52 12.08ZM9.6 27.32C7.52 27.32 5.86667 27.0667 4.64 26.56C3.41333 26.0533 2.50667 25.3067 1.92 24.32C1.38667 23.4667 1.04 22.4667 0.88 21.32C0.746667 20.1733 0.68 18.68 0.68 16.84C0.68 15.16 0.746667 13.76 0.88 12.64C1.01333 11.52 1.29333 10.5333 1.72 9.68C2.22667 8.69333 2.98667 7.93333 4 7.4C5.04 6.84 6.44 6.49333 8.2 6.36V16.8C8.2 17.9733 8.22667 18.8533 8.28 19.44C8.36 20.0267 8.50667 20.48 8.72 20.8C8.96 21.12 9.29333 21.3467 9.72 21.48C10.1733 21.6133 10.8133 21.68 11.64 21.68C13.0533 21.68 14.0267 21.64 14.56 21.56L15.92 21.4V26.6C13.9467 27.08 11.84 27.32 9.6 27.32ZM30.3138 14.36C30.3138 13.6667 30.2871 13.1733 30.2338 12.88C30.1804 12.5867 30.0204 12.3733 29.7538 12.24C29.5138 12.1067 29.0604 12.0133 28.3938 11.96C27.9938 11.9333 27.1271 11.92 25.7938 11.92C24.5138 11.92 23.3271 11.9733 22.2338 12.08L20.1138 12.2V7C22.6204 6.52 25.3271 6.28 28.2338 6.28C30.4738 6.28 32.2204 6.44 33.4738 6.76C34.7538 7.08 35.7138 7.58667 36.3538 8.28C36.9138 8.92 37.2738 9.73333 37.4338 10.72C37.6204 11.7067 37.7138 13.08 37.7138 14.84V27H30.3138V14.36ZM24.3938 27.28C22.5538 27.28 21.1938 26.7733 20.3138 25.76C19.4338 24.72 18.9938 23.16 18.9938 21.08C18.9938 19.8 19.0871 18.7733 19.2738 18C19.4604 17.2 19.7804 16.5733 20.2337 16.12C20.6871 15.64 21.3138 15.3067 22.1138 15.12C22.9138 14.9067 23.9671 14.8 25.2738 14.8L28.6338 14.88V18.44H28.2338C27.6204 18.44 27.2204 18.4533 27.0338 18.48C26.5004 18.5067 26.2204 18.76 26.1938 19.24C26.1671 19.4 26.1538 19.7333 26.1538 20.24C26.1538 20.64 26.1671 20.9467 26.1938 21.16C26.2471 21.3733 26.3271 21.5467 26.4338 21.68C26.5671 21.8667 26.7671 21.9733 27.0338 22C27.4071 22.0533 27.8071 22.08 28.2338 22.08H28.6338V26.16C28.0471 26.6133 27.4204 26.9067 26.7538 27.04C26.1138 27.2 25.3271 27.28 24.3938 27.28ZM55.3384 27.28C54.3784 27.28 53.5918 27.2 52.9784 27.04C52.3651 26.9067 51.7918 26.6267 51.2584 26.2V21.12H51.6984C52.2851 21.12 52.6984 21.0933 52.9384 21.04C53.2051 20.96 53.4051 20.8 53.5384 20.56C53.6718 20.2667 53.7518 19.84 53.7784 19.28C53.8051 18.88 53.8184 18.0533 53.8184 16.8C53.8184 15.5467 53.8051 14.72 53.7784 14.32C53.7518 13.7333 53.6718 13.3067 53.5384 13.04C53.4318 12.7733 53.2318 12.6133 52.9384 12.56C52.5651 12.5067 52.1518 12.48 51.6984 12.48H51.2584V7.4C51.7918 7 52.3784 6.72 53.0184 6.56C53.6851 6.4 54.4584 6.32 55.3384 6.32C56.4051 6.32 57.3118 6.49333 58.0584 6.84C58.8318 7.18667 59.4584 7.74667 59.9384 8.52C60.8718 10.0667 61.3384 12.8 61.3384 16.72C61.3384 20.6133 60.8718 23.36 59.9384 24.96C59.0051 26.5067 57.4718 27.28 55.3384 27.28ZM42.1784 6.6H49.5784V34.96H42.1784V6.6ZM78.4634 27.28C77.5034 27.28 76.7168 27.2 76.1034 27.04C75.4901 26.9067 74.9168 26.6267 74.3834 26.2V21.12H74.8234C75.4101 21.12 75.8234 21.0933 76.0634 21.04C76.3301 20.96 76.5301 20.8 76.6634 20.56C76.7968 20.2667 76.8768 19.84 76.9034 19.28C76.9301 18.88 76.9434 18.0533 76.9434 16.8C76.9434 15.5467 76.9301 14.72 76.9034 14.32C76.8768 13.7333 76.7968 13.3067 76.6634 13.04C76.5568 12.7733 76.3568 12.6133 76.0634 12.56C75.6901 12.5067 75.2768 12.48 74.8234 12.48H74.3834V7.4C74.9168 7 75.5034 6.72 76.1434 6.56C76.8101 6.4 77.5834 6.32 78.4634 6.32C79.5301 6.32 80.4368 6.49333 81.1834 6.84C81.9568 7.18667 82.5834 7.74667 83.0634 8.52C83.9968 10.0667 84.4634 12.8 84.4634 16.72C84.4634 20.6133 83.9968 23.36 83.0634 24.96C82.1301 26.5067 80.5968 27.28 78.4634 27.28ZM65.3034 6.6H72.7034V34.96H65.3034V6.6ZM94.1484 27.28C91.7484 27.28 90.1351 26.5467 89.3084 25.08C88.9351 24.44 88.6818 23.6667 88.5484 22.76C88.4151 21.8267 88.3484 20.6933 88.3484 19.36V6.6H95.7484V16.24C95.7484 17.6533 95.7618 18.5867 95.7884 19.04C95.8418 19.7067 95.9218 20.1867 96.0284 20.48C96.1351 20.7733 96.3084 20.96 96.5484 21.04C96.7884 21.0933 97.2151 21.12 97.8284 21.12H98.2284V26.12C97.1884 26.8933 95.8284 27.28 94.1484 27.28ZM99.9084 6.6H107.308V27H99.9084V6.6ZM110.306 6.6H114.066V0.679998H121.466V6.6H125.946V12.24H110.306V6.6ZM114.066 13.84H121.466V27H114.066V13.84ZM137.181 14.8H139.981C139.981 13.3067 139.834 12.3467 139.541 11.92C139.381 11.68 139.168 11.5333 138.901 11.48C138.634 11.4 138.248 11.36 137.741 11.36H137.181V6.28H137.741C140.034 6.28 141.794 6.46667 143.021 6.84C144.274 7.21333 145.194 7.82667 145.781 8.68C146.314 9.42667 146.634 10.3867 146.741 11.56C146.874 12.7333 146.941 14.4933 146.941 16.84V18.44H137.181V14.8ZM138.541 27.32C136.088 27.32 134.154 27.12 132.741 26.72C131.354 26.2933 130.314 25.6267 129.621 24.72C129.008 23.92 128.608 22.9333 128.421 21.76C128.234 20.56 128.141 18.92 128.141 16.84C128.141 14.92 128.208 13.4 128.341 12.28C128.474 11.1333 128.754 10.16 129.181 9.36C129.661 8.48 130.394 7.8 131.381 7.32C132.394 6.81333 133.768 6.49333 135.501 6.36V18.44C135.501 19.3467 135.541 20 135.621 20.4C135.701 20.7733 135.888 21.0533 136.181 21.24C136.501 21.4533 136.994 21.5733 137.661 21.6C138.514 21.6533 139.421 21.68 140.381 21.68C142.088 21.68 143.328 21.64 144.101 21.56L146.141 21.4V26.56C145.074 26.88 143.608 27.0933 141.741 27.2C140.834 27.28 139.768 27.32 138.541 27.32ZM159.447 14.8H162.247C162.247 13.3067 162.1 12.3467 161.807 11.92C161.647 11.68 161.433 11.5333 161.167 11.48C160.9 11.4 160.513 11.36 160.007 11.36H159.447V6.28H160.007C162.3 6.28 164.06 6.46667 165.287 6.84C166.54 7.21333 167.46 7.82667 168.047 8.68C168.58 9.42667 168.9 10.3867 169.007 11.56C169.14 12.7333 169.207 14.4933 169.207 16.84V18.44H159.447V14.8ZM160.807 27.32C158.353 27.32 156.42 27.12 155.007 26.72C153.62 26.2933 152.58 25.6267 151.887 24.72C151.273 23.92 150.873 22.9333 150.687 21.76C150.5 20.56 150.407 18.92 150.407 16.84C150.407 14.92 150.473 13.4 150.607 12.28C150.74 11.1333 151.02 10.16 151.447 9.36C151.927 8.48 152.66 7.8 153.647 7.32C154.66 6.81333 156.033 6.49333 157.767 6.36V18.44C157.767 19.3467 157.807 20 157.887 20.4C157.967 20.7733 158.153 21.0533 158.447 21.24C158.767 21.4533 159.26 21.5733 159.927 21.6C160.78 21.6533 161.687 21.68 162.647 21.68C164.353 21.68 165.593 21.64 166.367 21.56L168.407 21.4V26.56C167.34 26.88 165.873 27.0933 164.007 27.2C163.1 27.28 162.033 27.32 160.807 27.32ZM184.832 17.36C184.832 15.9467 184.819 15.0133 184.792 14.56C184.739 13.8133 184.672 13.32 184.592 13.08C184.486 12.8133 184.299 12.6533 184.032 12.6C183.766 12.52 183.339 12.48 182.752 12.48H182.352V7.48C183.392 6.70667 184.752 6.32 186.432 6.32C188.832 6.32 190.446 7.05333 191.272 8.52C191.646 9.16 191.899 9.94667 192.032 10.88C192.166 11.7867 192.232 12.9067 192.232 14.24V27H184.832V17.36ZM173.272 6.6H180.672V27H173.272V6.6ZM208.188 16.84C208.188 15.48 208.174 14.5733 208.148 14.12C208.121 13.48 208.041 13 207.908 12.68C207.774 12.3333 207.561 12.12 207.268 12.04C206.948 11.96 206.508 11.92 205.948 11.92H205.388V6.28H205.948C208.268 6.28 210.081 6.46667 211.388 6.84C212.694 7.18667 213.668 7.77333 214.308 8.6C214.894 9.34667 215.268 10.3467 215.428 11.6C215.614 12.8267 215.708 14.5733 215.708 16.84C215.708 18.9467 215.641 20.5867 215.508 21.76C215.401 22.9067 215.121 23.8533 214.668 24.6C214.161 25.4267 213.401 26.0533 212.388 26.48C211.374 26.88 209.974 27.1333 208.188 27.24V16.84ZM205.948 27.32C203.628 27.32 201.814 27.1467 200.508 26.8C199.201 26.4533 198.228 25.8667 197.588 25.04C197.001 24.2933 196.614 23.3067 196.428 22.08C196.268 20.8533 196.188 19.1067 196.188 16.84C196.188 14.76 196.254 13.1333 196.388 11.96C196.521 10.7867 196.814 9.81333 197.268 9.04C197.748 8.18667 198.494 7.56 199.508 7.16C200.521 6.73333 201.921 6.46667 203.708 6.36V16.84C203.708 18.2 203.721 19.0933 203.748 19.52C203.774 20.16 203.854 20.64 203.988 20.96C204.121 21.28 204.348 21.48 204.668 21.56C204.934 21.64 205.361 21.68 205.948 21.68H206.508V27.32H205.948Z" fill="#5D5D6D"/>
</svg>
